<?xml version="1.0" encoding="UTF-8"?>
<svg id="Capa_1" data-name="Capa 1" xmlns="http://www.w3.org/2000/svg" viewBox="0 0 117.47 114.89">
  <defs>
    <style>
      .cls-1 {
        fill: #6f9719;
      }
    </style>
  </defs>
  <path class="cls-1" d="M52.25,113.11H18.99c-8.79,0-15.92-7.13-15.92-15.92V17.7C3.07,8.91,10.19,1.78,18.99,1.78h79.49c8.79,0,15.92,7.13,15.92,15.92v79.49c0,8.79-7.13,15.92-15.92,15.92h-33.27c-2.39,0-4.37-1.87-4.5-4.27l-.79-15.02c-.03-.64-.09-1.29-.11-1.92-.05-1.44,1-2.59,2.46-2.63l21.5,3.79-.02-.24-2.78-7.61c-.22-.6-.1-1.14.26-1.65,7-5.67,13.96-11.32,20.94-16.99.73-.6,1.56-1.17,2.28-1.81.04-.04.26-.23.21-.28-.54-.21-1.07-.45-1.59-.69-1.11-.53-2.67-1.13-3.68-1.75-.75-.46-.96-1.13-.75-1.97.56-2.29,1.7-4.64,2.24-6.95.16-.09.11-.28.17-.46.72-2.21,1.49-4.41,2.14-6.64-2.26.51-4.53.95-6.79,1.43-2.14.45-4.28.99-6.44,1.36-.08.01-.15.08-.24.09-.47.07-1.14-.21-1.44-.59-.84-1.67-1.56-3.43-2.3-5.16-.17-.41-.34-.83-.47-1.25h-.13s-10.51,11.28-10.51,11.28c-1.21.86-2.74.07-2.68-1.41,1.55-8.31,3.3-16.53,4.85-24.81.03-.16.21-1.22.17-1.27l-4,2.31c-.12.07-.31.12-.42.18-1.1.64-2.48,1.63-3.59,2.14-1.45.66-2.04-.28-2.62-1.37-2.61-4.89-4.91-9.98-7.56-14.83-.1-.18-.18-.74-.41-.39-.18.28-.32.69-.48.99-2.03,3.97-4.09,7.98-6.12,11.92-.47.91-.89,1.92-1.4,2.83-.41.73-.89,1.13-1.79,1.02-.58-.07-1.12-.56-1.61-.83-2.33-1.32-4.66-2.63-6.96-4.02-.05.07.15,1.13.18,1.31,1.46,7.88,3.15,15.72,4.58,23.61.13.75.44,1.33.08,2.09-.45.95-1.68,1.14-2.5.53l-10.51-11.27h-.13c-.53,1.34-1.07,2.69-1.64,4.01-.26.59-.75,1.94-1.13,2.39-.83.99-2,.42-3.04.21-3.98-.8-7.9-1.67-11.88-2.5l4.56,14.06c.41,1.71-.88,2.06-2.12,2.65-1.29.62-2.6,1.19-3.91,1.77-.04.05.17.24.21.28.74.64,1.57,1.23,2.32,1.84,6.28,5.1,12.55,10.16,18.8,15.28.56.46,1.26.92,1.8,1.38.41.35.6.77.7,1.31-.75,2.7-1.88,5.28-2.79,7.93-.03.09-.19.52-.14.56l3.7-.67c5.24-.88,10.51-1.83,15.75-2.72,1.39-.23,3-.86,4.02.59.63.9.4,1.52.36,2.49l-.8,16.09c-.12,2.4-2.1,4.28-4.5,4.28Z"/>
</svg>